<svg width="190" height="200" viewBox="0 0 190 200" fill="none" xmlns="http://www.w3.org/2000/svg">
<path fill-rule="evenodd" clip-rule="evenodd" d="M94.7015 0L189.403 46.7937V153.206L94.7015 200L0 153.206V46.7937L94.7015 0ZM17.2185 65.9994V142.508L86.0923 176.539V100.031L17.2185 65.9994ZM103.311 100.031V176.539L172.185 142.508V65.9994L146.357 78.7614V112.914L129.138 121.523V87.2697L103.311 100.031ZM161.36 52.1425L138.926 63.2268C138.435 62.8213 137.89 62.4645 137.295 62.1672L72.9087 29.974L94.7015 19.2057L161.36 52.1425ZM53.5439 39.5424L119.807 72.6741L94.7015 85.0795L28.0436 52.1425L53.5439 39.5424Z" fill="#FF6600"/>
</svg>
